<?xml version="1.0" standalone="no"?>
<!DOCTYPE svg PUBLIC "-//W3C//DTD SVG 20010904//EN"
 "http://www.w3.org/TR/2001/REC-SVG-20010904/DTD/svg10.dtd">
<svg version="1.0" xmlns="http://www.w3.org/2000/svg"
 width="512.000000pt" height="512.000000pt" viewBox="0 0 512.000000 512.000000"
 preserveAspectRatio="xMidYMid meet">
<metadata>
Created by potrace 1.14, written by Peter Selinger 2001-2017
</metadata>
<g transform="translate(0.000000,512.000000) scale(0.100000,-0.100000)"
fill="#000000" stroke="none">
<path d="M1330 3100 c-87 -25 -152 -63 -214 -124 -91 -91 -137 -216 -141 -386
-2 -47 -3 -88 -4 -92 0 -5 -49 -8 -109 -8 l-107 0 -1 -167 c0 -93 4 -170 8
-174 4 -3 53 -5 108 -4 62 1 101 -3 103 -9 1 -6 3 -280 2 -608 l0 -598 203 0
202 0 0 608 0 607 160 0 160 0 0 172 0 173 -161 0 -160 0 2 78 c4 157 51 203
211 206 31 1 60 5 64 9 4 3 7 80 7 169 l1 163 -135 1 c-103 2 -149 -2 -199
-16z"/>
<path d="M2367 2520 c-120 -21 -295 -97 -374 -165 -206 -177 -308 -400 -302
-664 7 -335 203 -621 511 -747 31 -13 71 -26 90 -29 18 -3 53 -11 78 -16 98
-22 310 -3 447 39 55 17 155 72 210 114 54 41 133 122 133 136 0 4 -57 57
-127 117 -69 61 -132 116 -139 123 -19 19 -25 16 -83 -43 -32 -33 -80 -68
-119 -87 -62 -31 -74 -33 -167 -33 -95 1 -104 3 -175 38 -84 41 -113 64 -163
130 -104 137 -118 328 -36 501 27 59 110 146 165 174 170 86 363 58 487 -71
l51 -54 75 61 c42 34 81 66 87 71 12 12 89 75 123 102 31 25 22 42 -63 120
-71 65 -214 142 -301 163 -27 6 -59 14 -70 17 -33 9 -287 11 -338 3z"/>
</g>
</svg>
